/* Создано в Gimp */
#define CurStd1_width 13
#define CurStd1_height 21
#define CurStd1_x_hot 1
#define CurStd1_y_hot 1
static unsigned char CurStd1_bits[] = {
   0x00, 0x00, 0x02, 0x00, 0x06, 0x00, 0x0a, 0x00, 0x12, 0x00, 0x22, 0x00,
   0x42, 0x00, 0x82, 0x00, 0x02, 0x01, 0x02, 0x02, 0x02, 0x04, 0x82, 0x0f,
   0x92, 0x00, 0x2a, 0x01, 0x26, 0x01, 0x42, 0x02, 0x40, 0x02, 0x80, 0x04,
   0x80, 0x04, 0x00, 0x07, 0x00, 0x00 };
