/* Создано в Gimp */
#define CurStd_mask_width 13
#define CurStd_mask_height 21
static unsigned char CurStd_mask_bits[] = {
   0x03, 0x00, 0x07, 0x00, 0x0f, 0x00, 0x1f, 0x00, 0x3f, 0x00, 0x7f, 0x00,
   0xff, 0x00, 0xff, 0x01, 0xff, 0x03, 0xff, 0x07, 0xff, 0x0f, 0xff, 0x1f,
   0xff, 0x0f, 0xff, 0x01, 0xff, 0x03, 0xe7, 0x03, 0xe3, 0x07, 0xc0, 0x07,
   0xc0, 0x0f, 0x80, 0x1f, 0x00, 0x1f };
