/* Создано в Gimp */
#define CurStd1_mask_width 13
#define CurStd1_mask_height 21
#define CurStd1_mask_x_hot 1
#define CurStd1_mask_y_hot 1
static unsigned char CurStd1_mask_bits[] = {
   0x00, 0x00, 0x02, 0x00, 0x06, 0x00, 0x0e, 0x00, 0x1e, 0x00, 0x3e, 0x00,
   0x7e, 0x00, 0xfe, 0x00, 0xfe, 0x01, 0xfe, 0x03, 0xfe, 0x07, 0xfe, 0x0f,
   0xfe, 0x00, 0xee, 0x01, 0xe6, 0x01, 0xc2, 0x03, 0xc0, 0x03, 0x80, 0x07,
   0x80, 0x07, 0x00, 0x07, 0x00, 0x00 };
