/* Создано в Gimp */
#define ShearLR_width 17
#define ShearLR_height 17
static unsigned char ShearLR_bits[] = {
   0x00, 0x00, 0x00, 0x00, 0x00, 0x00, 0x00, 0x00, 0x00, 0x00, 0x00, 0x00,
   0x00, 0x00, 0x00, 0x00, 0x00, 0x00, 0x70, 0x1c, 0x00, 0x3c, 0x78, 0x00,
   0xff, 0xff, 0x01, 0x3c, 0x78, 0x00, 0x70, 0x1c, 0x00, 0x00, 0x00, 0x00,
   0x00, 0x00, 0x00, 0x00, 0x00, 0x00, 0x00, 0x00, 0x00, 0x00, 0x00, 0x00,
   0x00, 0x00, 0x00 };
