/* Создано в Gimp */
#define TurnTL_width 15
#define TurnTL_height 15
static unsigned char TurnTL_bits[] = {
   0x00, 0x07, 0x00, 0x1e, 0xc0, 0x7f, 0x30, 0x1e, 0x08, 0x07, 0x08, 0x00,
   0x04, 0x00, 0x04, 0x00, 0x15, 0x00, 0x1f, 0x00, 0x1f, 0x00, 0x0e, 0x00,
   0x0e, 0x00, 0x04, 0x00, 0x04, 0x00 };
