/* Создано в Gimp */
#define TurnBR_width 15
#define TurnBR_height 15
static unsigned char TurnBR_bits[] = {
   0x00, 0x10, 0x00, 0x10, 0x00, 0x38, 0x00, 0x38, 0x00, 0x7c, 0x00, 0x7c,
   0x00, 0x54, 0x00, 0x10, 0x00, 0x10, 0x00, 0x08, 0x70, 0x08, 0x3c, 0x06,
   0xff, 0x01, 0x3c, 0x00, 0x70, 0x00 };
