/* Создано в Gimp */
#define TurnTR_width 15
#define TurnTR_height 15
static unsigned char TurnTR_bits[] = {
   0x70, 0x00, 0x3c, 0x00, 0xff, 0x01, 0x3c, 0x06, 0x70, 0x08, 0x00, 0x08,
   0x00, 0x10, 0x00, 0x10, 0x00, 0x54, 0x00, 0x7c, 0x00, 0x7c, 0x00, 0x38,
   0x00, 0x38, 0x00, 0x10, 0x00, 0x10 };
