<?xml version="1.0" encoding="UTF-8" standalone="no"?>
<!-- Created with Inkscape (http://www.inkscape.org/) -->
<svg
   xmlns:dc="http://purl.org/dc/elements/1.1/"
   xmlns:cc="http://creativecommons.org/ns#"
   xmlns:rdf="http://www.w3.org/1999/02/22-rdf-syntax-ns#"
   xmlns:svg="http://www.w3.org/2000/svg"
   xmlns="http://www.w3.org/2000/svg"
   xmlns:xlink="http://www.w3.org/1999/xlink"
   xmlns:sodipodi="http://sodipodi.sourceforge.net/DTD/sodipodi-0.dtd"
   xmlns:inkscape="http://www.inkscape.org/namespaces/inkscape"
   width="128"
   height="128"
   id="svg2"
   sodipodi:version="0.32"
   inkscape:version="0.46"
   version="1.0"
   sodipodi:docname="cutter1.svg"
   inkscape:output_extension="org.inkscape.output.svg.inkscape">
  <defs
     id="defs4">
    <linearGradient
       id="linearGradient3491">
      <stop
         id="stop3493"
         offset="0"
         style="stop-color:#343636;stop-opacity:1;" />
      <stop
         style="stop-color:#ffffff;stop-opacity:1;"
         offset="0.37531856"
         id="stop3495" />
      <stop
         id="stop3497"
         offset="0.62954628"
         style="stop-color:#ffffff;stop-opacity:1;" />
      <stop
         id="stop3499"
         offset="1"
         style="stop-color:#474346;stop-opacity:1;" />
    </linearGradient>
    <linearGradient
       id="linearGradient3260">
      <stop
         style="stop-color:#333333;stop-opacity:1;"
         offset="0"
         id="stop3262" />
      <stop
         id="stop3268"
         offset="0.5"
         style="stop-color:#000000;stop-opacity:1;" />
      <stop
         style="stop-color:#333333;stop-opacity:1;"
         offset="1"
         id="stop3264" />
    </linearGradient>
    <linearGradient
       id="linearGradient3246">
      <stop
         style="stop-color:#343636;stop-opacity:1;"
         offset="0"
         id="stop3248" />
      <stop
         id="stop3256"
         offset="0.11032039"
         style="stop-color:#ffffff;stop-opacity:1;" />
      <stop
         style="stop-color:#ffffff;stop-opacity:1;"
         offset="0.75"
         id="stop3258" />
      <stop
         style="stop-color:#474346;stop-opacity:1;"
         offset="1"
         id="stop3250" />
    </linearGradient>
    <linearGradient
       id="linearGradient3209">
      <stop
         style="stop-color:#000029;stop-opacity:1;"
         offset="0"
         id="stop3211" />
      <stop
         id="stop3223"
         offset="0.05676698"
         style="stop-color:#008fce;stop-opacity:1;" />
      <stop
         id="stop3217"
         offset="0.12733632"
         style="stop-color:#004eb9;stop-opacity:1;" />
      <stop
         style="stop-color:#004fbb;stop-opacity:1;"
         offset="0.80595231"
         id="stop3219" />
      <stop
         id="stop3225"
         offset="0.90757692"
         style="stop-color:#0037c7;stop-opacity:1;" />
      <stop
         style="stop-color:#00085a;stop-opacity:1;"
         offset="1"
         id="stop3213" />
    </linearGradient>
    <inkscape:perspective
       sodipodi:type="inkscape:persp3d"
       inkscape:vp_x="0 : 526.18109 : 1"
       inkscape:vp_y="0 : 1000 : 0"
       inkscape:vp_z="744.09448 : 526.18109 : 1"
       inkscape:persp3d-origin="372.04724 : 350.78739 : 1"
       id="perspective10" />
    <inkscape:perspective
       id="perspective2410"
       inkscape:persp3d-origin="372.04724 : 350.78739 : 1"
       inkscape:vp_z="744.09448 : 526.18109 : 1"
       inkscape:vp_y="0 : 1000 : 0"
       inkscape:vp_x="0 : 526.18109 : 1"
       sodipodi:type="inkscape:persp3d" />
    <linearGradient
       inkscape:collect="always"
       xlink:href="#linearGradient3209"
       id="linearGradient3215"
       x1="59.795418"
       y1="29.996735"
       x2="59.795418"
       y2="106.84303"
       gradientUnits="userSpaceOnUse"
       gradientTransform="translate(-2.0100334,0)" />
    <linearGradient
       inkscape:collect="always"
       xlink:href="#linearGradient3246"
       id="linearGradient3252"
       x1="56.422508"
       y1="21.196098"
       x2="56.422508"
       y2="39.016502"
       gradientUnits="userSpaceOnUse"
       gradientTransform="translate(-2.0100334,0)" />
    <linearGradient
       inkscape:collect="always"
       xlink:href="#linearGradient3260"
       id="linearGradient3266"
       x1="60.37756"
       y1="24.909067"
       x2="60.37756"
       y2="39.258675"
       gradientUnits="userSpaceOnUse"
       gradientTransform="translate(-2.0100334,0)" />
    <filter
       inkscape:collect="always"
       id="filter3449"
       x="-0.16181102"
       width="1.323622"
       y="-0.048812352"
       height="1.0976247">
      <feGaussianBlur
         inkscape:collect="always"
         stdDeviation="0.26757812"
         id="feGaussianBlur3451" />
    </filter>
    <linearGradient
       inkscape:collect="always"
       xlink:href="#linearGradient3491"
       id="linearGradient3479"
       x1="117.08267"
       y1="67.373283"
       x2="120.02201"
       y2="67.373283"
       gradientUnits="userSpaceOnUse"
       gradientTransform="translate(-2.0100334,0)" />
    <linearGradient
       inkscape:collect="always"
       xlink:href="#linearGradient3491"
       id="linearGradient3507"
       x1="8.0114498"
       y1="67.424065"
       x2="10.906595"
       y2="67.424065"
       gradientUnits="userSpaceOnUse"
       gradientTransform="translate(-2.0100334,0)" />
    <filter
       inkscape:collect="always"
       id="filter3740"
       x="-0.031569901"
       width="1.0631398"
       y="-0.16387971"
       height="1.3277594">
      <feGaussianBlur
         inkscape:collect="always"
         stdDeviation="1.5193015"
         id="feGaussianBlur3742" />
    </filter>
    <linearGradient
       inkscape:collect="always"
       xlink:href="#linearGradient3491"
       id="linearGradient3750"
       x1="57.239967"
       y1="60"
       x2="57.239967"
       y2="67.812164"
       gradientUnits="userSpaceOnUse" />
    <marker
       orient="auto"
       markerHeight="3"
       markerWidth="4"
       markerUnits="strokeWidth"
       refY="5"
       refX="10"
       viewBox="0 0 10 10"
       id="ArrowStart">
      <path
         id="path3784"
         d="M 10 0 L 0 5 L 10 10 z" />
    </marker>
    <marker
       orient="auto"
       markerHeight="3"
       markerWidth="4"
       markerUnits="strokeWidth"
       refY="5"
       refX="0"
       viewBox="0 0 10 10"
       id="ArrowEnd">
      <path
         id="path3781"
         d="M 0 0 L 10 5 L 0 10 z" />
    </marker>
    <inkscape:perspective
       id="perspective3795"
       inkscape:persp3d-origin="372.04749 : 350.78752 : 1"
       inkscape:vp_z="744.09497 : 526.18127 : 1"
       inkscape:vp_y="0 : 1000 : 0"
       inkscape:vp_x="0 : 526.18127 : 1"
       sodipodi:type="inkscape:persp3d" />
  </defs>
  <sodipodi:namedview
     id="base"
     pagecolor="#ffffff"
     bordercolor="#666666"
     borderopacity="1.0"
     gridtolerance="10000"
     guidetolerance="10"
     objecttolerance="10"
     inkscape:pageopacity="0.0"
     inkscape:pageshadow="2"
     inkscape:zoom="11.313709"
     inkscape:cx="68.02299"
     inkscape:cy="34.360594"
     inkscape:document-units="px"
     inkscape:current-layer="layer1"
     showgrid="true"
     showguides="true"
     inkscape:guide-bbox="true"
     inkscape:snap-global="false"
     inkscape:window-width="1672"
     inkscape:window-height="988"
     inkscape:window-x="0"
     inkscape:window-y="31">
    <sodipodi:guide
       orientation="1,0"
       position="0.16242699,102.329"
       id="guide2416" />
    <sodipodi:guide
       orientation="1,0"
       position="127.99246,68.056907"
       id="guide2418" />
    <sodipodi:guide
       orientation="0,1"
       position="98.59318,-0.32485397"
       id="guide2420" />
    <sodipodi:guide
       orientation="0,1"
       position="62.209535,127.99246"
       id="guide2422" />
    <inkscape:grid
       type="xygrid"
       id="grid3196"
       visible="true"
       enabled="true"
       empspacing="4"
       dotted="false" />
  </sodipodi:namedview>
  <metadata
     id="metadata7">
    <rdf:RDF>
      <cc:Work
         rdf:about="">
        <dc:format>image/svg+xml</dc:format>
        <dc:type
           rdf:resource="http://purl.org/dc/dcmitype/StillImage" />
      </cc:Work>
    </rdf:RDF>
  </metadata>
  <g
     inkscape:label="Layer 1"
     inkscape:groupmode="layer"
     id="layer1">
    <path
       style="opacity:0.2761194;fill:#000000;fill-opacity:1;fill-rule:nonzero;stroke:none;stroke-width:1;stroke-linecap:butt;stroke-linejoin:miter;stroke-miterlimit:4;stroke-dashoffset:0;stroke-opacity:0.42145595000000002;filter:url(#filter3740)"
       d="M 13.003342,89.213943 L 113.77319,89.196624 L 121.5,111.75 L 4.3500841,111.75 L 13.003342,89.213943 z"
       id="rect3509"
       sodipodi:nodetypes="ccccc"
       transform="matrix(1.0714285,0,0,0.6179775,-2.1785714,37.191011)" />
    <rect
       style="opacity:1;fill:#999999;fill-opacity:1;fill-rule:nonzero;stroke:none;stroke-width:1;stroke-linecap:butt;stroke-linejoin:miter;stroke-miterlimit:4;stroke-dasharray:none;stroke-dashoffset:0;stroke-opacity:1"
       id="rect3254"
       width="127.27922"
       height="127.27922"
       x="6.2071095"
       y="134.22078" />
    <rect
       style="opacity:1;fill:url(#linearGradient3750);fill-opacity:1;fill-rule:nonzero;stroke:#4d4d4d;stroke-width:1;stroke-linecap:butt;stroke-linejoin:miter;stroke-miterlimit:4;stroke-dasharray:none;stroke-dashoffset:0;stroke-opacity:1"
       id="rect3244"
       width="105.01646"
       height="8"
       x="9.4899664"
       y="60.5" />
    <image
       y="8.75"
       x="152"
       id="image2412"
       height="126.85667"
       width="126.85667"
       sodipodi:absref="/home/qq/Desktop/Cutter_Plotter__CT1200_.jpg"
       xlink:href="Cutter_Plotter__CT1200_.jpg" />
    <rect
       inkscape:transform-center-y="6.2673366"
       inkscape:transform-center-x="-5.5716934"
       transform="matrix(-1,0,0.515466,0.85691,0,0)"
       y="107.39277"
       x="-59.688713"
       height="13.460784"
       width="3.1413348"
       id="rect3231"
       style="opacity:1;fill:#000000;fill-opacity:1;fill-rule:nonzero;stroke:#4d4d4d;stroke-width:1.08027017;stroke-linecap:butt;stroke-linejoin:miter;stroke-miterlimit:4;stroke-dasharray:none;stroke-dashoffset:0;stroke-opacity:1" />
    <rect
       style="opacity:1;fill:#000000;fill-opacity:1;fill-rule:nonzero;stroke:#4d4d4d;stroke-width:1.08027017;stroke-linecap:butt;stroke-linejoin:miter;stroke-miterlimit:4;stroke-dasharray:none;stroke-dashoffset:0;stroke-opacity:1"
       id="rect3229"
       width="3.1413348"
       height="13.460784"
       x="64.245491"
       y="107.39277"
       transform="matrix(1,0,-0.515466,0.85691,0,0)"
       inkscape:transform-center-x="5.5716925"
       inkscape:transform-center-y="6.2673366" />
    <path
       style="fill:url(#linearGradient3252);fill-opacity:1;fill-rule:nonzero;stroke:#4d4d4d;stroke-width:0.99999994;stroke-linecap:butt;stroke-linejoin:miter;stroke-miterlimit:4;stroke-dasharray:none;stroke-dashoffset:0;stroke-opacity:1"
       d="M 9.5823496,20.505878 L 112.63081,20.505878 C 116.46783,20.466983 118.51859,21.383735 118.86157,25.486818 L 119.72653,35.834554 C 119.72653,37.313701 118.52306,38.504497 117.02816,38.504497 L 5.2849438,38.504497 C 3.7900463,38.504497 2.5865729,37.313701 2.5865729,35.834554 L 4.4854266,24.955783 C 5.1850042,22.09222 6.0886586,20.505878 9.5823496,20.505878 z"
       id="rect3198"
       sodipodi:nodetypes="ccscccccc" />
    <rect
       style="opacity:1;fill:url(#linearGradient3266);fill-opacity:1;fill-rule:nonzero;stroke:#4d4d4d;stroke-width:1.00000012;stroke-linecap:butt;stroke-linejoin:miter;stroke-miterlimit:4;stroke-dasharray:none;stroke-dashoffset:0;stroke-opacity:1"
       id="rect3201"
       width="105.9915"
       height="14.262917"
       x="8.486167"
       y="24.495123"
       ry="0" />
    <rect
       ry="0"
       y="28.49118"
       x="8.4884272"
       height="3"
       width="105.97881"
       id="rect3203"
       style="opacity:1;fill:#808080;fill-opacity:1;fill-rule:nonzero;stroke:#4d4d4d;stroke-width:1.00000012;stroke-linecap:butt;stroke-linejoin:miter;stroke-miterlimit:4;stroke-dasharray:none;stroke-dashoffset:0;stroke-opacity:1" />
    <rect
       style="opacity:1;fill:none;fill-opacity:1;fill-rule:nonzero;stroke:#4d4d4d;stroke-width:1;stroke-linecap:butt;stroke-linejoin:miter;stroke-miterlimit:4;stroke-dasharray:none;stroke-dashoffset:0;stroke-opacity:1"
       id="rect3205"
       width="5.9494128"
       height="3.9914842"
       x="14.500102"
       y="24.483881" />
    <rect
       style="opacity:1;fill:url(#linearGradient3507);fill-opacity:1;fill-rule:nonzero;stroke:#4d4d4d;stroke-width:1;stroke-linecap:butt;stroke-linejoin:miter;stroke-miterlimit:4;stroke-dasharray:none;stroke-dashoffset:0;stroke-opacity:1"
       id="rect3207"
       width="3"
       height="55.999996"
       x="6.5014167"
       y="39.424065" />
    <rect
       style="opacity:1;fill:url(#linearGradient3215);fill-opacity:1;fill-rule:nonzero;stroke:#4d4d4d;stroke-width:1;stroke-linecap:butt;stroke-linejoin:miter;stroke-miterlimit:4;stroke-dasharray:none;stroke-dashoffset:0;stroke-opacity:1"
       id="rect2424"
       width="97.976013"
       height="77"
       x="12.500218"
       y="30.496735" />
    <rect
       y="39.322502"
       x="114.51198"
       height="56.101559"
       width="3"
       id="rect3227"
       style="opacity:1;fill:url(#linearGradient3479);fill-opacity:1;fill-rule:nonzero;stroke:#4d4d4d;stroke-width:1;stroke-linecap:butt;stroke-linejoin:miter;stroke-miterlimit:4;stroke-dasharray:none;stroke-dashoffset:0;stroke-opacity:1" />
    <path
       style="fill:#ffffff;fill-opacity:1;fill-rule:nonzero;stroke:#4d4d4d;stroke-width:1;stroke-linecap:butt;stroke-linejoin:miter;stroke-miterlimit:4;stroke-dashoffset:0;stroke-opacity:1"
       d="M 99.492927,18.531031 L 108.50854,18.531031 C 109.0533,18.531031 109.49186,18.969592 109.49186,19.514351 C 109.49186,20.05911 109.48081,19.701522 109.48081,20.497671 L 98.520657,20.497671 C 98.520657,19.702139 98.509607,20.05911 98.509607,19.514351 C 98.509607,18.969592 98.948167,18.531031 99.492927,18.531031 z"
       id="rect3233"
       sodipodi:nodetypes="ccsccsc" />
    <g
       id="g3240"
       style="fill:#808080;stroke:none"
       transform="matrix(1.0142857,0,0,0.9846154,-2.2529463,0.4302885)">
      <rect
         y="24.921875"
         x="17.003906"
         height="3.046875"
         width="1"
         id="rect3236"
         style="opacity:1;fill:#808080;fill-opacity:1;fill-rule:nonzero;stroke:none;stroke-width:1;stroke-linecap:butt;stroke-linejoin:miter;stroke-miterlimit:4;stroke-dasharray:none;stroke-dashoffset:0;stroke-opacity:1" />
      <rect
         style="opacity:1;fill:#808080;fill-opacity:1;fill-rule:nonzero;stroke:none;stroke-width:1;stroke-linecap:butt;stroke-linejoin:miter;stroke-miterlimit:4;stroke-dasharray:none;stroke-dashoffset:0;stroke-opacity:1"
         id="rect3238"
         width="1"
         height="3.046875"
         x="20.925781"
         y="24.921875" />
    </g>
    <path
       style="fill:#999999;fill-opacity:1;fill-rule:nonzero;stroke:#4d4d4d;stroke-width:1.21200013;stroke-linecap:butt;stroke-linejoin:miter;stroke-miterlimit:4;stroke-dashoffset:0;stroke-opacity:1;filter:url(#filter3449)"
       d="M 8.0625,22.65625 L 9.4375,22.28125 L 7.34375,37.0625 L 5.7471063,36.973834 L 5.25,35.875 L 7.2144754,24.618399 L 8.0625,22.65625 z"
       id="rect3270"
       sodipodi:nodetypes="ccccccc"
       transform="matrix(0.6865672,0,-4.5767044e-2,0.9915433,1.9802093,0.1884249)"
       inkscape:transform-center-x="2.2360996"
       inkscape:transform-center-y="7.0578899" />
    <rect
       inkscape:transform-center-y="1.1809388"
       inkscape:transform-center-x="-1.5054296"
       transform="matrix(1,0,1.8852619e-2,-0.9998223,0,0)"
       y="-106.57612"
       x="3.5041759"
       height="1.9969239"
       width="3.3421969"
       id="rect3457"
       style="opacity:1;fill:#000000;fill-opacity:1;fill-rule:nonzero;stroke:#4d4d4d;stroke-width:1.00008869;stroke-linecap:butt;stroke-linejoin:miter;stroke-miterlimit:4;stroke-dasharray:none;stroke-dashoffset:0;stroke-opacity:1" />
    <rect
       style="opacity:1;fill:#000000;fill-opacity:1;fill-rule:nonzero;stroke:#4d4d4d;stroke-width:1.40303361;stroke-linecap:butt;stroke-linejoin:miter;stroke-miterlimit:4;stroke-dasharray:none;stroke-dashoffset:0;stroke-opacity:1"
       id="rect3459"
       width="11.574748"
       height="2.0352247"
       x="-25.368631"
       y="-117.10301"
       transform="matrix(-0.5178353,0.8554803,1.1457166e-2,-0.9999344,0,0)"
       inkscape:transform-center-x="-3.5078133"
       inkscape:transform-center-y="-4.2967421" />
    <rect
       style="opacity:1;fill:#000000;fill-opacity:1;fill-rule:nonzero;stroke:#4d4d4d;stroke-width:1.00008869;stroke-linecap:butt;stroke-linejoin:miter;stroke-miterlimit:4;stroke-dasharray:none;stroke-dashoffset:0;stroke-opacity:1"
       id="rect3461"
       width="3.3421969"
       height="1.9969239"
       x="-120.40293"
       y="-106.57612"
       transform="matrix(-1,0,-1.8852619e-2,-0.9998223,0,0)"
       inkscape:transform-center-x="1.5054294"
       inkscape:transform-center-y="1.1809388" />
    <rect
       inkscape:transform-center-y="-4.3752744"
       inkscape:transform-center-x="3.7993015"
       transform="matrix(0.543126,0.8396512,-1.2405892e-2,-0.999923,0,0)"
       y="78.820915"
       x="207.30322"
       height="2.0357699"
       width="11.952799"
       id="rect3463"
       style="opacity:1;fill:#000000;fill-opacity:1;fill-rule:nonzero;stroke:#4d4d4d;stroke-width:1.37016153;stroke-linecap:butt;stroke-linejoin:miter;stroke-miterlimit:4;stroke-dasharray:none;stroke-dashoffset:0;stroke-opacity:1" />
    <g
       style="fill:#ffffff;fill-rule:evenodd;stroke:#ffffff;stroke-width:2.12368727;stroke-miterlimit:4;stroke-dasharray:none"
       id="g3802"
       transform="matrix(0.2667189,0,0,0.2672583,17.20972,-90.716197)">
      <g
         id="g3786"
         style="fill:#ffffff;stroke:#ffffff;stroke-width:2.12368727;stroke-miterlimit:4;stroke-dasharray:none">
        <path
           id="path3788"
           d="M 77.032,574.064 C 83.0021,536.057 114.914,506.471 153.971,504.093 C 163.666,515.609 168.638,528.68 168.638,542.083 C 168.638,553.245 165.221,564.739 158.247,575.875 C 145.901,568.507 130.487,564.551 115.227,564.551 C 101.786,564.551 88.3387,567.6 77.032,574.064 z M 171.22,504.648 C 209.226,510.618 238.812,542.53 241.19,581.587 C 229.674,591.282 216.603,596.254 203.2,596.254 C 192.038,596.254 180.544,592.836 169.408,585.863 C 176.776,573.517 180.732,558.103 180.732,542.842 C 180.732,529.401 177.683,515.955 171.22,504.648 z M 240.632,598.839 C 234.662,636.845 202.75,666.431 163.693,668.809 C 153.998,657.293 149.027,644.222 149.027,630.819 C 149.027,619.657 152.444,608.163 159.417,597.027 C 171.763,604.395 187.178,608.352 202.438,608.352 C 215.879,608.352 229.326,605.302 240.632,598.839 z M 146.446,668.252 C 108.439,662.282 78.8528,630.37 76.4746,591.313 C 87.991,581.618 101.062,576.646 114.465,576.646 C 125.627,576.646 137.121,580.063 148.257,587.037 C 140.889,599.383 136.933,614.797 136.933,630.058 C 136.933,643.499 139.982,656.945 146.446,668.252 z M 140.603,509.998 C 144.478,509.155 148.293,508.459 152.255,508.13 C 155.551,512.279 158.236,516.714 160.407,521.55 C 161.498,524.129 162.393,526.698 163.129,529.406 C 163.982,532.849 164.497,536.21 164.703,539.755 C 164.81,542.859 164.68,545.854 164.299,548.938 C 163.764,552.688 162.899,556.257 161.699,559.852 C 160.375,563.606 158.766,567.154 156.84,570.639 C 147.169,565.487 136.503,562.561 125.663,561.258 C 121.738,560.849 117.862,560.652 113.912,560.681 C 109.059,560.784 104.327,561.225 99.5368,562.037 L 96.966,562.536 C 91.9804,563.624 87.1776,565.07 82.4675,567.055 L 84.123,561.498 L 86.5557,555.26 L 89.4888,549.288 L 92.8976,543.607 L 96.7561,538.245 L 101.037,533.228 L 105.713,528.581 L 110.76,524.335 L 116.149,520.512 L 121.855,517.142 L 127.849,514.248 L 134.108,511.858 L 140.603,509.998 z M 235.287,568.22 C 236.129,572.095 236.827,575.909 237.156,579.871 C 233.001,583.165 228.571,585.851 223.732,588.023 C 220.783,589.27 217.851,590.256 214.739,591.028 C 213.215,591.369 211.703,591.653 210.156,591.888 C 205.491,592.487 201.012,592.491 196.346,591.915 C 195.356,591.773 194.37,591.614 193.383,591.436 C 186.717,590.107 180.59,587.739 174.643,584.457 C 179.795,574.787 182.722,564.121 184.025,553.28 C 184.434,549.355 184.632,545.479 184.602,541.529 C 184.5,536.676 184.059,531.944 183.246,527.153 L 182.747,524.582 C 181.659,519.595 180.212,514.794 178.228,510.083 L 183.787,511.739 L 190.024,514.17 L 195.996,517.104 L 201.676,520.513 L 207.039,524.371 L 212.056,528.652 L 216.702,533.329 L 220.948,538.375 L 224.771,543.765 L 228.142,549.471 L 231.036,555.465 L 233.425,561.724 L 235.287,568.22 z M 177.061,662.906 C 173.186,663.749 169.371,664.446 165.409,664.774 C 162.373,660.944 159.854,656.875 157.756,652.459 C 156.271,649.16 155.125,645.877 154.253,642.361 C 153.998,641.22 153.769,640.084 153.567,638.929 C 152.799,633.88 152.738,629.033 153.365,623.967 L 153.665,621.994 C 154.932,614.972 157.372,608.502 160.826,602.264 C 170.041,607.184 180.204,610.063 190.52,611.466 C 194.498,611.946 198.427,612.2 202.436,612.23 C 207.292,612.197 212.033,611.827 216.835,611.086 L 219.415,610.626 C 224.851,609.527 230.078,608.003 235.196,605.847 L 233.54,611.405 L 231.108,617.643 L 228.175,623.615 L 224.766,629.296 L 220.908,634.658 L 216.627,639.676 L 211.951,644.321 L 206.904,648.569 L 201.515,652.391 L 195.809,655.762 L 189.815,658.655 L 183.556,661.045 L 177.061,662.906 z M 82.3778,604.681 C 81.5355,600.806 80.8383,596.992 80.5093,593.03 C 84.9835,589.481 89.7813,586.634 95.0432,584.409 C 98.007,583.23 100.951,582.313 104.068,581.617 C 107.148,581 110.159,580.649 113.302,580.54 C 116.687,580.5 119.947,580.744 123.293,581.285 C 124.963,581.586 126.604,581.947 128.251,582.37 C 133.454,583.805 138.298,585.831 143.022,588.444 C 137.872,598.121 134.943,608.777 133.641,619.624 C 133.232,623.549 133.035,627.425 133.064,631.375 C 133.166,636.229 133.607,640.959 134.42,645.749 L 134.919,648.32 C 136.007,653.309 137.456,658.105 139.437,662.819 L 133.878,661.162 L 127.64,658.731 L 121.668,655.797 L 115.988,652.389 L 110.625,648.53 L 105.608,644.25 L 100.963,639.572 L 96.7162,634.526 L 92.8937,629.136 L 89.5226,623.43 L 86.629,617.435 L 84.239,611.177 L 82.3778,604.681 z"
           style="fill:#ffffff;stroke:#ffffff;stroke-width:2.12368727;stroke-miterlimit:4;stroke-dasharray:none" />
      </g>
      <g
         id="g3790"
         style="fill:#ffffff;stroke:#ffffff;stroke-width:2.12368727;stroke-miterlimit:4;stroke-dasharray:none" />
    </g>
    <path
       style="font-size:24.88306808000000103px;font-style:normal;font-weight:normal;line-height:125%;fill:#004eba;fill-opacity:1;stroke:none;stroke-width:2.50000000000000000;stroke-linecap:butt;stroke-linejoin:miter;stroke-miterlimit:4;stroke-dasharray:none;stroke-opacity:1;font-family:Bitstream Vera Sans"
       d="M 48.116921,77.889639 L 48.116921,79.009145 L 48.116921,80.044688 L 48.116921,81.164194 L 49.512626,81.164194 L 50.001123,81.164194 C 50.85751,81.164195 51.026896,81.226627 51.117686,81.220169 L 51.117686,81.751935 L 51.117686,92.359255 L 51.117686,92.891021 C 51.026506,92.884653 50.85708,92.919008 50.001123,92.919008 L 49.512626,92.919008 L 48.675203,92.919008 C 48.750376,92.607884 48.884559,92.324515 48.884559,91.995416 C 48.884557,90.977695 48.410608,90.061599 47.628425,89.336589 L 48.047136,89.336589 L 48.047136,88.217083 L 48.047136,84.466737 L 48.02145,83.317688 L 46.651431,83.347231 L 45.674438,83.347231 L 45.011478,83.347231 L 44.592767,83.767046 L 44.488089,83.851009 C 43.567143,83.496789 42.594411,83.263268 41.487324,83.263268 C 39.958217,83.263269 38.536525,83.674893 37.544458,84.466737 C 36.552391,85.258581 36.009183,86.383161 36.009183,87.601354 C 36.009183,88.478932 36.39431,89.26181 36.986176,89.924329 L 35.834719,89.924329 L 35.834719,91.043836 L 35.834719,95.241984 L 35.834719,96.36149 L 37.230424,96.36149 L 38.207418,96.36149 L 38.835485,96.36149 L 39.254196,95.969663 L 39.498444,95.745761 C 40.584582,96.21659 41.761268,96.557403 42.987706,96.557403 C 44.638685,96.557403 46.126487,96.117285 47.209713,95.297959 C 47.598936,95.003565 47.858183,94.612517 48.116921,94.234428 L 48.116921,95.102045 L 48.116921,96.221551 L 49.512626,96.221551 L 58.654492,96.221551 L 60.050197,96.221551 L 60.050197,95.102045 L 60.050197,94.038515 L 60.050197,92.919008 L 58.654492,92.919008 L 58.09621,92.919008 C 57.266981,92.919008 57.129122,92.889937 57.014539,92.891021 L 57.014539,92.359255 L 57.014539,89.980305 L 58.654492,88.664885 L 62.248432,92.919008 L 61.480794,92.919008 L 60.085089,92.919008 L 60.085089,94.038515 L 60.085089,95.102045 L 60.085089,96.221551 L 61.480794,96.221551 L 70.971587,96.221551 L 71.634546,96.221551 L 72.367291,96.221551 L 73.030251,96.221551 L 84.056319,96.221551 L 85.452023,96.221551 L 85.452023,95.102045 L 85.452023,94.038515 L 85.452023,92.919008 L 84.056319,92.919008 L 82.521043,92.919008 C 81.977257,92.919008 81.693805,92.884035 81.439372,92.863033 C 81.435703,92.700929 81.40448,92.683957 81.40448,92.359255 L 81.40448,83.151317 C 81.404482,82.089797 81.476182,81.052794 81.613835,79.484935 L 81.718513,78.281466 L 80.218131,78.281466 L 79.206245,78.281466 L 78.124573,78.701281 C 77.936771,78.882931 77.272101,79.233072 76.34505,79.484935 C 75.417998,79.736798 74.266423,79.913007 73.134929,79.932737 L 71.774117,79.960725 L 71.774117,81.052243 L 71.774117,82.003824 L 71.774117,83.12333 L 73.169822,83.12333 L 75.612305,83.12333 C 75.777709,83.12333 75.809546,83.120137 75.926338,83.12333 C 75.93108,83.224753 75.926338,83.253042 75.926338,83.403206 L 75.926338,92.359255 L 75.926338,92.891021 C 75.817379,92.88888 75.66312,92.919008 74.844667,92.919008 L 73.030251,92.919008 L 72.367291,92.919008 L 71.634546,92.919008 L 70.971587,92.919008 L 70.448197,92.919008 C 69.743363,92.919008 69.494586,92.858833 69.436311,92.835045 C 69.378037,92.811258 69.242306,92.736529 68.878029,92.30328 L 62.806714,85.306367 L 66.121513,82.619552 L 66.156405,82.619552 L 66.156405,82.591564 C 67.26652,81.645481 68.602848,81.164194 69.82013,81.164194 L 71.215835,81.164194 L 71.215835,80.044688 L 71.215835,79.009145 L 71.215835,77.889639 L 69.82013,77.889639 L 61.271439,77.889639 L 60.050197,77.889639 L 59.875734,77.889639 L 58.654492,77.889639 L 49.512626,77.889639 L 48.116921,77.889639 z M 64.935163,80.128651 L 65.737694,80.128651 C 65.515605,80.249777 65.285263,80.353657 65.074734,80.49249 C 65.04655,80.372399 65.001111,80.248964 64.935163,80.128651 z M 58.09621,81.164194 L 58.654492,81.164194 L 59.875734,81.164194 L 60.050197,81.164194 L 61.271439,81.164194 L 61.82972,81.164194 C 61.694838,81.290908 61.614817,81.392546 61.445902,81.528034 L 57.014539,85.082465 L 57.014539,81.751935 L 57.014539,81.220169 C 57.128722,81.221342 57.266504,81.164194 58.09621,81.164194 z M 41.626894,86.481848 C 42.36435,86.481849 42.768088,86.601855 43.336632,87.041601 C 43.552645,87.214867 43.660733,87.560847 43.790237,87.741293 C 43.754953,87.735151 43.756412,87.719452 43.720451,87.713305 L 42.324747,87.461416 C 41.560701,87.327705 41.184868,87.274052 41.03372,87.237515 C 40.882572,87.200978 40.934845,87.209003 40.684793,87.097577 L 40.615008,87.069589 L 40.580116,87.041601 C 40.450428,86.994318 40.440545,86.950923 40.440545,86.901663 C 40.440545,86.810465 40.421068,86.773198 40.580116,86.677762 C 40.739163,86.582325 41.108153,86.481848 41.626894,86.481848 z M 40.126512,91.435663 C 40.479498,91.523065 40.598388,91.662054 41.03372,91.743527 L 42.49921,92.023403 C 43.524854,92.221261 44.095177,92.419207 44.278733,92.527181 C 44.46229,92.635155 44.383411,92.510621 44.383411,92.695107 C 44.383411,92.893278 44.333217,92.962194 44.139163,93.086934 C 43.945108,93.211674 43.5471,93.338823 42.987706,93.338823 C 42.119882,93.338823 41.536045,93.14419 40.998827,92.751082 C 40.641632,92.489709 40.38964,91.934703 40.126512,91.435663 z"
       id="text3807"
       sodipodi:nodetypes="cccccccccccccsccccccccccsssccccccccccsscccccccccccccccccccccccccccccccccccccccccscccccccccccccccccscccccccccccccccccccccccccccccccccssccscccssccccsssssc" />
    <path
       transform="scale(1.1165638,0.8956049)"
       style="font-size:24.88306808px;font-style:normal;font-weight:normal;line-height:125%;fill:#ffffff;fill-opacity:1;stroke:none;stroke-width:1px;stroke-linecap:butt;stroke-linejoin:miter;stroke-opacity:1;font-family:Bitstream Vera Sans"
       d="M 41.772027,94.306619 L 40.90112,94.306619 L 40.179511,95.202409 C 39.283721,94.505684 38.387929,94.207087 37.143777,94.207087 C 34.954069,94.207087 33.510849,95.650307 33.510849,97.815131 C 33.510849,98.78557 33.834329,99.606713 34.381756,100.10437 C 34.954066,100.62692 35.526379,100.87575 37.019361,101.22411 L 38.338164,101.52271 C 40.303924,101.99549 41.000652,102.49315 41.000652,103.48847 C 41.000652,104.65797 39.980445,105.47912 38.512345,105.47912 C 36.42217,105.47912 34.929183,104.13543 34.33199,101.64712 L 33.336667,101.64712 L 33.336667,106.35002 L 34.207575,106.35002 L 35.078482,105.32982 C 36.098687,106.15096 37.24331,106.54909 38.487462,106.54909 C 40.926001,106.54909 42.543402,105.03122 42.543402,102.7171 C 42.543402,101.62224 42.195039,100.77622 41.498314,100.20391 C 40.901121,99.681362 40.403457,99.482297 38.885591,99.158817 L 37.641438,98.885103 C 36.272871,98.586507 36.272869,98.586506 35.824974,98.337676 C 35.277547,98.088845 34.954067,97.5663 34.954067,97.018873 C 34.954067,96.023552 35.899625,95.301942 37.268192,95.301942 C 38.213748,95.301942 38.985124,95.625422 39.68185,96.297264 C 40.229277,96.844691 40.502991,97.342354 40.90112,98.486974 L 41.772027,98.486974 L 41.772027,94.306619 M 49.806537,98.039079 L 49.806537,91.270885 L 49.806537,90.549276 C 49.806537,89.504188 50.030486,89.379771 52.046013,89.379771 L 52.518791,89.379771 L 52.518791,88.210267 L 44.332262,88.210267 L 44.332262,89.379771 L 44.780157,89.379771 C 46.795683,89.379771 47.019633,89.504188 47.019633,90.549276 L 47.019633,91.270885 L 47.019633,103.11522 L 47.019633,103.83683 C 47.019633,104.88192 46.795683,105.00634 44.780157,105.00634 L 44.332262,105.00634 L 44.332262,106.17584 L 52.518791,106.17584 L 52.518791,105.00634 L 52.046013,105.00634 C 50.030486,105.00634 49.806537,104.88192 49.806537,103.83683 L 49.806537,103.11522 L 49.806537,99.955075 L 52.692973,97.043756 L 57.022626,103.38894 C 57.420755,103.98613 57.520288,104.1852 57.520288,104.43403 C 57.520288,104.83216 57.047508,105.00634 55.828239,105.00634 L 55.056864,105.00634 L 55.056864,106.17584 L 63.566873,106.17584 L 63.566873,105.00634 L 63.094095,105.00634 C 61.725528,105.00634 61.377163,104.83216 60.655554,103.76218 L 54.633852,95.077994 L 58.341429,91.370417 C 59.535815,90.101382 61.053685,89.379771 62.546668,89.379771 L 62.546668,88.210267 L 54.882683,88.210267 L 54.882683,89.379771 L 55.504759,89.379771 C 56.649379,89.379771 57.122159,89.603719 57.122159,90.126263 C 57.122159,90.474626 56.624497,91.196236 55.902888,91.917844 L 49.806537,98.039079 M 70.940815,88.658162 C 70.094791,89.678367 67.805546,90.449743 65.516306,90.499509 L 65.516306,91.569481 L 67.706016,91.569481 C 69.149232,91.569481 69.248766,91.669015 69.248766,93.137115 L 69.248766,103.11522 L 69.248766,103.83683 C 69.248766,104.88192 69.024816,105.00634 67.034173,105.00634 L 65.416774,105.00634 L 65.416774,106.17584 L 75.270469,106.17584 L 75.270469,105.00634 L 73.9019,105.00634 C 72.583099,105.00634 72.03567,104.90681 71.836605,104.65798 C 71.662424,104.48379 71.662424,104.48379 71.662424,103.11522 L 71.662424,92.838518 C 71.662424,91.619249 71.71219,90.424858 71.836605,88.658162 L 70.940815,88.658162"
       id="text3752" />
  </g>
</svg>
