/* Создано в Gimp */
#define Center_width 13
#define Center_height 13
static unsigned char Center_bits[] = {
   0xf0, 0x01, 0x0c, 0x06, 0x02, 0x08, 0x02, 0x08, 0x41, 0x10, 0x41, 0x10,
   0xb1, 0x11, 0x41, 0x10, 0x41, 0x10, 0x02, 0x08, 0x02, 0x08, 0x0c, 0x06,
   0xf0, 0x01 };
