/* XPM */
static char * icon_sk1_32_xpm[] = {
"32 32 235 2",
"  	c None",
". 	c #D4D5D5",
"+ 	c #D7D8D8",
"@ 	c #DEDFDF",
"# 	c #E4E5E5",
"$ 	c #E5E6E6",
"% 	c #E5E5E5",
"& 	c #DFDFDF",
"* 	c #D8D9D9",
"= 	c #FCFCFC",
"- 	c #FFFFFF",
"; 	c #E9E9E9",
"> 	c #FBFBFB",
", 	c #FEFFFF",
"' 	c #CDECF9",
") 	c #B4E3F6",
"! 	c #BBE6F7",
"~ 	c #DDF2FB",
"{ 	c #FCE5F1",
"] 	c #F8BDDD",
"^ 	c #F7B3D8",
"/ 	c #F9C7E2",
"( 	c #FFFBFD",
"_ 	c #F2FAFD",
": 	c #8FD5F2",
"< 	c #2DB1E6",
"[ 	c #00A0E1",
"} 	c #4EBDEA",
"| 	c #AFE1F6",
"1 	c #FCFEFF",
"2 	c #FFFEFF",
"3 	c #ED5DAD",
"4 	c #E3037E",
"5 	c #E3007D",
"6 	c #E7228E",
"7 	c #F17EBD",
"8 	c #FDECF6",
"9 	c #DBDBDB",
"0 	c #8AD4F1",
"a 	c #0FA6E3",
"b 	c #01A0E1",
"c 	c #02A1E1",
"d 	c #1EABE5",
"e 	c #BAE6F7",
"f 	c #FACDE6",
"g 	c #E82992",
"h 	c #E3047F",
"i 	c #E40A82",
"j 	c #F077B9",
"k 	c #FDEAF4",
"l 	c #8ED5F2",
"m 	c #29AFE6",
"n 	c #C0E7F8",
"o 	c #FAD1E8",
"p 	c #EA399A",
"q 	c #E40881",
"r 	c #F074B8",
"s 	c #E6E6E6",
"t 	c #05A2E2",
"u 	c #72CAEE",
"v 	c #F38EC5",
"w 	c #E40B83",
"x 	c #E61889",
"y 	c #FEF1F8",
"z 	c #CAEBF9",
"A 	c #17A9E4",
"B 	c #E9399A",
"C 	c #F5A9D3",
"D 	c #B0E2F5",
"E 	c #E61F8C",
"F 	c #F393C8",
"G 	c #B7E4F6",
"H 	c #04A1E1",
"I 	c #E72590",
"J 	c #F395C9",
"K 	c #D7F0FA",
"L 	c #24ADE5",
"M 	c #EA45A0",
"N 	c #F7B5D9",
"O 	c #44B9E9",
"P 	c #0AA4E2",
"Q 	c #87D2F1",
"R 	c #F4A0CF",
"S 	c #E51387",
"T 	c #E72992",
"U 	c #FEF9FC",
"V 	c #A6DEF5",
"W 	c #19A9E4",
"X 	c #3BB6E8",
"Y 	c #D0EEFA",
"Z 	c #FCDFEF",
"` 	c #EC4DA4",
" .	c #E50F85",
"..	c #F28EC5",
"+.	c #FAFDFE",
"@.	c #AEE1F5",
"#.	c #20ACE5",
"$.	c #03A1E1",
"%.	c #08A3E2",
"&.	c #38B5E8",
"*.	c #D8F1FB",
"=.	c #FCE8F3",
"-.	c #E40C83",
";.	c #E3027E",
">.	c #E51789",
",.	c #F49BCC",
"'.	c #FEF5FA",
").	c #60C4EC",
"!.	c #0CA4E2",
"~.	c #7FD0F0",
"{.	c #CDEDF9",
"].	c #FBD8EB",
"^.	c #F28CC4",
"/.	c #E7228F",
"(.	c #E3037F",
"_.	c #EC54A8",
":.	c #F5A7D2",
"<.	c #FEF7FB",
"[.	c #FFFCD8",
"}.	c #FFF899",
"|.	c #F8EF47",
"1.	c #EEEA2D",
"2.	c #F0EB36",
"3.	c #FBF259",
"4.	c #FFF9B0",
"5.	c #FFFDE9",
"6.	c #F2F2F1",
"7.	c #C5C5C5",
"8.	c #7E7B7C",
"9.	c #5B4D53",
"0.	c #514149",
"a.	c #635A5E",
"b.	c #A2A2A1",
"c.	c #D6D6D6",
"d.	c #FFFCD5",
"e.	c #FFF141",
"f.	c #FFEE0F",
"g.	c #FFED00",
"h.	c #FFEF1C",
"i.	c #FFF460",
"j.	c #FFFEF4",
"k.	c #8B8A89",
"l.	c #494948",
"m.	c #2E2D2C",
"n.	c #2D2C2B",
"o.	c #363534",
"p.	c #585756",
"q.	c #CFCFCF",
"r.	c #FDFDFD",
"s.	c #FFFBC2",
"t.	c #FFF02D",
"u.	c #FFF358",
"v.	c #FFFDE3",
"w.	c #F1F0F0",
"x.	c #898888",
"y.	c #474645",
"z.	c #BCBCBC",
"A.	c #FFF463",
"B.	c #FFED05",
"C.	c #FFEE14",
"D.	c #FFF8A0",
"E.	c #C2C2C1",
"F.	c #474746",
"G.	c #2F2E2D",
"H.	c #656564",
"I.	c #FFFDE5",
"J.	c #FFED04",
"K.	c #FFF136",
"L.	c #757474",
"M.	c #D2D1D1",
"N.	c #FFFABC",
"O.	c #FFEE09",
"P.	c #504F4E",
"Q.	c #ACACAB",
"R.	c #FFF9AF",
"S.	c #454443",
"T.	c #A5A4A4",
"U.	c #FFFBBF",
"V.	c #FFEE0C",
"W.	c #535251",
"X.	c #AFAFAF",
"Y.	c #FFFEF5",
"Z.	c #FFEF1A",
"`.	c #FFED02",
" +	c #FFF359",
".+	c #8F8F8E",
"++	c #323130",
"@+	c #373635",
"#+	c #FFF46C",
"$+	c #FFEE16",
"%+	c #FFF9A7",
"&+	c #C8C8C7",
"*+	c #4A4948",
"=+	c #6F6F6E",
"-+	c #FEFEFE",
";+	c #E0E0E0",
">+	c #FFFDE4",
",+	c #FFF895",
"'+	c #FFFEF6",
")+	c #BBBABA",
"!+	c #3C3B3A",
"~+	c #706F6E",
"{+	c #DFDFDE",
"]+	c #FFFFFD",
"^+	c #FFFDDF",
"/+	c #FFEE0A",
"(+	c #FFEF1B",
"_+	c #FFF67E",
":+	c #FFFEF3",
"<+	c #F9F9F9",
"[+	c #A4A3A3",
"}+	c #4B4A4A",
"|+	c #666565",
"1+	c #DCDCDC",
"2+	c #EBECEC",
"3+	c #FFFDDD",
"4+	c #FFF78A",
"5+	c #FFF578",
"6+	c #FFF67C",
"7+	c #FFF89A",
"8+	c #FFFEF1",
"9+	c #F9F8F8",
"0+	c #B5B4B4",
"a+	c #949393",
"b+	c #9B9A9A",
"c+	c #F0F0F0",
"d+	c #D9DADA",
"e+	c #EBEBEB",
"f+	c #FFFFFB",
"g+	c #FFFFFC",
"h+	c #FFFFFE",
"i+	c #EEEFEF",
"j+	c #DCDDDD",
"k+	c #E4E4E4",
"l+	c #DDDEDE",
"              . . . . . . . . . . . . . . . . . . .             ",
"        + @ # $ $ $ $ $ $ $ $ $ $ $ $ $ $ $ $ $ $ % & *         ",
"    + % = - - - - - - - - - - - - - - - - - - - - - - - ; *     ",
"    % > - - - , ' ) ! ~ - - - - - - - - { ] ^ / ( - - - = ;     ",
"  + = - - _ : < [ [ [ [ } | 1 - - 2 ] 3 4 5 5 5 6 7 8 2 - - 9   ",
"  @ - - _ 0 a b [ [ [ [ c d e 1 2 f g h 5 5 5 5 5 i j k - - #   ",
"  % - - l a [ [ [ [ [ [ [ [ m n o p 5 5 5 5 5 5 5 5 q r - - s . ",
". s - 1 < b [ [ [ [ [ [ [ [ t u v w 5 5 5 5 5 5 5 5 5 x y - s . ",
". s - z [ [ [ [ [ [ [ [ [ [ [ A B 5 5 5 5 5 5 5 5 5 5 5 C - s . ",
". s - D [ [ [ [ [ [ [ [ [ [ [ c E 5 5 5 5 5 5 5 5 5 5 5 F - s . ",
". s - G [ [ [ [ [ [ [ [ [ [ [ H I 5 5 5 5 5 5 5 5 5 5 5 J - s . ",
". s - K [ [ [ [ [ [ [ [ [ [ [ L M 5 5 5 5 5 5 5 5 5 5 5 N - s . ",
". s - , O c [ [ [ [ [ [ [ [ P Q R S 5 5 5 5 5 5 5 5 5 T U - s . ",
". s - - V W [ [ [ [ [ [ [ [ X Y Z ` 5 5 5 5 5 5 5 5  ...- - s . ",
". s - - +.@.#.$.[ [ [ [ %.&.*.- - =.M -.5 5 5 5 ;.>.,.'.- - s . ",
". s - - - +.) ).!.[ c W ~.{.- - - - ].^./.(.5 q _.:.<.- - - s . ",
". s - - - - [.}.|.1.2.3.4.5.- - - - 6.7.8.9.0.a.b.c.- - - - s . ",
". s - - - d.e.f.g.g.g.g.h.i.j.- - = k.l.m.n.n.n.o.p.q.r.- - s . ",
". s - - s.t.g.g.g.g.g.g.g.g.u.v.w.x.n.n.n.n.n.n.n.n.y.z.- - s . ",
". s - - A.B.g.g.g.g.g.g.g.g.C.D.E.F.n.n.n.n.n.n.n.n.G.H.- - s . ",
". s - I.J.g.g.g.g.g.g.g.g.g.g.K.L.n.n.n.n.n.n.n.n.n.n.n.M.- s . ",
". s - N.g.g.g.g.g.g.g.g.g.g.g.O.P.n.n.n.n.n.n.n.n.n.n.n.Q.- s . ",
". s - R.g.g.g.g.g.g.g.g.g.g.g.g.S.n.n.n.n.n.n.n.n.n.n.n.T.- s . ",
". s - U.g.g.g.g.g.g.g.g.g.g.g.V.W.n.n.n.n.n.n.n.n.n.n.n.X.- s . ",
". s - Y.Z.g.g.g.g.g.g.g.g.g.`. +.+++n.n.n.n.n.n.n.n.n.@+s - s . ",
". s - - #+B.g.g.g.g.g.g.g.g.$+%+&+*+n.n.n.n.n.n.n.n.m.=+-+- s . ",
"  ;+- - >+A.J.g.g.g.g.g.g.V.,+'+= )+!+m.n.n.n.n.n.m.~+{+- - $   ",
"  * - - ]+^+u./+g.g.g.g.(+_+:+- - <+[+}+n.n.n.n.++|+1+= - - @   ",
"    2+r.- - ]+3+4+5+6+7+8+- - - - - - 9+0+a+.+b+9 = - - -+c+    ",
"    d+e+- - - - ]+f+g+h+- - - - - - - - -+= = r.- - - - i+j+    ",
"        9 k+$ $ $ $ $ $ $ $ $ $ $ $ $ $ $ $ $ $ $ $ # l+        ",
"            . . . . . . . . . . . . . . . . . . . .             "};
